# File created by Blade
# Date/Time:  Wed Jan 28 15:39:58 2015
#---------------------------------------------------------
:version 1.10
:name HOM
:units
  mass 1.0
  length 1.000000
  angle deg
:documentation
     Acclaim Skeleton File
:root
   axis xyz
   order TX TY TZ RX RY RZ
   position 0.000000 0.000000 0.000000
   orientation 0 0 0
:bonedata
   begin
      id 1
      name Spine_dum
      direction 0.000000 1.000000 0.000000
      length 6.864287
      axis 0.0 0.0 0.0 xyz
   end
   begin
      id 2
      name LeftUpLeg_dum
      direction 1.000000 0.000000 0.000000
      length 4.117376
      axis 0.0 0.0 0.0 xyz
   end
   begin
      id 3
      name RightUpLeg_dum
      direction -1.000000 0.000000 0.000000
      length 4.117376
      axis 0.0 0.0 0.0 xyz
   end
   begin
      id 4
      name Spine
      direction 0.000000 1.000000 0.000000
      length 0.000000
      axis 0.0 0.0 0.0 xyz
      dof rx ry rz
   end
   begin
      id 5
      name Spine_dum1
      direction 0.000000 1.000000 0.000000
      length 15.393827
      axis 0.0 0.0 0.0 xyz
   end
   begin
      id 6
      name Spine_dum2
      direction 0.000000 1.000000 0.000000
      length 9.314826
      axis 0.0 0.0 0.0 xyz
   end
   begin
      id 7
      name Spine_dum3
      direction 0.000000 1.000000 0.000000
      length 9.314826
      axis 0.0 0.0 0.0 xyz
   end
   begin
      id 8
      name Head
      direction 0.000000 1.000000 0.000000
      length 4.527550
      axis 0.0 0.0 0.0 xyz
      dof rx ry rz
   end
   begin
      id 9
      name LeftShoulder
      direction 1.000000 0.000000 0.000000
      length 8.275398
      axis 0.0 0.0 -90.0 xyz
      dof rx ry rz
   end
   begin
      id 10
      name LeftArm
      direction 1.000000 0.000000 0.000000
      length 12.002200
      axis 0.0 0.0 -90.0 xyz
      dof rx ry rz
   end
   begin
      id 11
      name LeftForeArm
      direction 1.000000 0.000000 0.000000
      length 10.144633
      axis 0.0 0.0 -90.0 xyz
      dof ry rz rx
   end
   begin
      id 12
      name LeftHand
      direction 0.000000 0.000000 0.000000
      length 0.000000
      axis 0.0 0.0 -90.0 xyz
      dof rx ry rz
   end
   begin
      id 13
      name LeftHand_dum1
      direction 0.000000 0.000000 0.000000
      length 0.000000
      axis 0.0 0.0 -90.0 xyz
   end
   begin
      id 14
      name LeftHand_dum2
      direction 1.000000 0.000000 0.000000
      length 3.937000
      axis 0.0 0.0 -90.0 xyz
   end
   begin
      id 15
      name LeftHandThumb1
      direction 0.000000 0.000000 1.000000
      length 3.937000
      axis 0.0 0.0 -90.0 xyz
      dof rx rz ry
   end
   begin
      id 16
      name RightShoulder
      direction -1.000000 0.000000 0.000000
      length 8.275398
      axis 0.0 0.0 90.0 xyz
      dof rx ry rz
   end
   begin
      id 17
      name RightArm
      direction -1.000000 0.000000 0.000000
      length 12.002200
      axis 0.0 0.0 90.0 xyz
      dof rx ry rz
   end
   begin
      id 18
      name RightForeArm
      direction -1.000000 0.000000 0.000000
      length 10.144633
      axis 0.0 0.0 90.0 xyz
      dof ry rz rx
   end
   begin
      id 19
      name RightHand
      direction 0.000000 0.000000 0.000000
      length 0.000000
      axis 0.0 0.0 90.0 xyz
      dof rx ry rz
   end
   begin
      id 20
      name RightHand_dum1
      direction 0.000000 0.000000 0.000000
      length 0.000000
      axis 0.0 0.0 90.0 xyz
   end
   begin
      id 21
      name RightHand_dum2
      direction -1.000000 0.000000 0.000000
      length 3.937000
      axis 0.0 0.0 90.0 xyz
   end
   begin
      id 22
      name RightHandThumb1
      direction 0.000000 0.000000 1.000000
      length 3.937000
      axis 0.0 0.0 90.0 xyz
      dof rx rz ry
   end
   begin
      id 23
      name LeftUpLeg
      direction 0.000000 -1.000000 0.000000
      length 19.394322
      axis 0.0 0.0 0.0 xyz
      dof rx ry rz
   end
   begin
      id 24
      name LeftLeg
      direction 0.000000 -1.000000 0.000000
      length 17.609563
      axis 0.0 0.0 0.0 xyz
      dof rx ry rz
   end
   begin
      id 25
      name LeftFoot
      direction 0.000000 -0.258819 0.965926
      length 6.085393
      axis 15.0 0.0 0.0 xyz
      dof rx ry rz
   end
   begin
      id 26
      name LeftToeBase
      direction 0.000000 0.000000 1.000000
      length 2.952750
      axis 0.0 0.0 0.0 xyz
      dof rx ry rz
   end
   begin
      id 27
      name RightUpLeg
      direction 0.000000 -1.000000 0.000000
      length 19.394322
      axis 0.0 0.0 0.0 xyz
      dof rx ry rz
   end
   begin
      id 28
      name RightLeg
      direction 0.000000 -1.000000 0.000000
      length 17.609563
      axis 0.0 0.0 0.0 xyz
      dof rx ry rz
   end
   begin
      id 29
      name RightFoot
      direction 0.000000 -0.258819 0.965926
      length 6.085393
      axis 15.0 0.0 0.0 xyz
      dof rx ry rz
   end
   begin
      id 30
      name RightToeBase
      direction 0.000000 0.000000 1.000000
      length 2.952750
      axis 0.0 0.0 0.0 xyz
      dof rx ry rz
   end
:hierarchy
   begin
      root Spine_dum LeftUpLeg_dum RightUpLeg_dum
      Spine_dum Spine
      LeftUpLeg_dum LeftUpLeg
      RightUpLeg_dum RightUpLeg
      Spine Spine_dum1 Spine_dum2 Spine_dum3
      Spine_dum1 Head
      Spine_dum2 LeftShoulder
      Spine_dum3 RightShoulder
      LeftShoulder LeftArm
      LeftArm LeftForeArm
      LeftForeArm LeftHand
      LeftHand LeftHand_dum1 LeftHand_dum2
      LeftHand_dum1 LeftHandThumb1
      RightShoulder RightArm
      RightArm RightForeArm
      RightForeArm RightHand
      RightHand RightHand_dum1 RightHand_dum2
      RightHand_dum1 RightHandThumb1
      LeftUpLeg LeftLeg
      LeftLeg LeftFoot
      LeftFoot LeftToeBase
      RightUpLeg RightLeg
      RightLeg RightFoot
      RightFoot RightToeBase
   end

# File created by Blade
# Date/Time:  Wed Jan 28 15:40:07 2015
# Frame Rate: 120.000 fps
#------------------------------------------------------
:FULLY-SPECIFIED
:DEGREES
692
root -5.093232 40.864978 -14.490224 -9.355402 -49.209451 51.417915
Spine 11.644791 3.722061 13.472891
Head -2.916104 -30.671084 -17.190486
LeftShoulder -17.033158 17.218436 -8.458253
LeftArm 6.945541 10.372833 -85.496532
LeftForeArm -15.851859 -0.000000 8.319284
LeftHand 1.756135 0.000000 -11.951605
LeftHandThumb1 -26.253704 0.000000 33.147579
RightShoulder -4.646501 10.776993 -38.121325
RightArm 11.249468 36.758230 43.848040
RightForeArm -21.035250 -0.000000 102.068304
RightHand -21.185187 -0.000000 -49.314593
RightHandThumb1 -24.326973 -0.000000 -32.862282
LeftUpLeg -15.973755 4.162025 19.889589
LeftLeg 150.057496 -0.000000 -0.000000
LeftFoot 16.203033 2.351966 -30.577144
LeftToeBase 13.696490 -0.000000 -0.000000
RightUpLeg -39.365859 -8.401045 -26.486617
RightLeg 23.261311 -0.000000 -0.000000
RightFoot -26.841461 -8.332079 23.195967
RightToeBase 11.853894 -0.000000 -0.000000
693
root -5.037731 40.853390 -14.518742 -9.395971 -49.653278 51.609458
Spine 11.762584 3.806204 13.108334
Head -3.260680 -30.394150 -16.809248
LeftShoulder -17.061070 17.306007 -8.371395
LeftArm 7.221922 10.317861 -85.395255
LeftForeArm -15.608202 -0.000000 8.365293
LeftHand 1.857361 -0.000000 -11.681063
LeftHandThumb1 -26.253704 0.000000 33.147579
RightShoulder -4.722999 10.529357 -38.002907
RightArm 12.091690 37.044244 44.349283
RightForeArm -21.061033 0.000000 102.422212
RightHand -20.975145 -0.000000 -49.397562
RightHandThumb1 -24.326973 -0.000000 -32.862282
LeftUpLeg -16.154687 3.964586 19.738687
LeftLeg 149.983813 -0.000000 -0.000000
LeftFoot 16.298564 2.249210 -30.446813
LeftToeBase 13.622599 -0.000000 -0.000000
RightUpLeg -39.844452 -8.097870 -26.436255
RightLeg 23.314584 -0.000000 -0.000000
RightFoot -26.713496 -8.768182 22.781087
RightToeBase 10.922889 -0.000000 -0.000000
694
root -4.984261 40.837379 -14.550911 -9.309131 -50.131418 51.627717
Spine 11.901289 3.815845 12.927541
Head -3.613081 -30.155490 -16.708004
LeftShoulder -17.042036 17.188503 -8.283894
LeftArm 7.224540 10.173342 -85.347766
LeftForeArm -15.308185 -0.000000 8.506084
LeftHand 1.958916 -0.000000 -11.420474
LeftHandThumb1 -26.253704 0.000000 33.147579
RightShoulder -4.719176 10.685973 -38.084212
RightArm 12.632709 37.310876 44.795447
RightForeArm -21.164891 -0.000000 102.684039
RightHand -21.089793 -0.000000 -48.511121
RightHandThumb1 -24.326973 -0.000000 -32.862282
LeftUpLeg -16.347935 3.750974 19.727485
LeftLeg 149.977331 -0.000000 -0.000000
LeftFoot 16.230499 2.225897 -30.254613
LeftToeBase 13.278557 -0.000000 -0.000000
RightUpLeg -40.280069 -7.664001 -26.326117
RightLeg 23.276994 -0.000000 -0.000000
RightFoot -26.542453 -9.376062 22.358416
RightToeBase 10.526165 -0.000000 -0.000000
695
root -4.939320 40.819572 -14.578795 -9.227605 -50.557826 51.606316
Spine 12.059593 3.741988 12.773232
Head -3.914996 -29.856004 -16.618965
LeftShoulder -17.021537 17.225428 -8.253111
LeftArm 7.430178 9.782277 -85.285735
LeftForeArm -14.918221 -0.000000 8.565149
LeftHand 1.906016 -0.000000 -11.401987
LeftHandThumb1 -26.253704 0.000000 33.147579
RightShoulder -4.566547 11.172503 -38.171274
RightArm 12.494945 37.475264 44.898048
RightForeArm -21.099050 -0.000000 103.231643
RightHand -21.426676 0.000000 -47.402147
RightHandThumb1 -24.326973 -0.000000 -32.862282
LeftUpLeg -16.501467 3.464186 19.725326
LeftLeg 149.968774 -0.000000 -0.000000
LeftFoot 16.067888 2.300822 -30.218741
LeftToeBase 13.266870 -0.000000 -0.000000
RightUpLeg -40.643589 -7.273596 -26.191377
RightLeg 23.242545 -0.000000 -0.000000
RightFoot -26.351423 -9.954863 21.984958
RightToeBase 10.815881 -0.000000 -0.000000
696
root -4.898266 40.801190 -14.605378 -9.150900 -50.966830 51.591555
Spine 12.226154 3.561530 12.569900
Head -4.318441 -29.419882 -16.265000
LeftShoulder -17.072479 17.098625 -8.189712
LeftArm 7.492986 9.768731 -85.172659
LeftForeArm -14.686513 -0.000000 8.655246
LeftHand 1.935496 0.000000 -11.307036
LeftHandThumb1 -26.253704 0.000000 33.147579
RightShoulder -4.460067 11.463667 -38.183883
RightArm 12.801669 37.722025 45.199353
RightForeArm -20.896638 -0.000000 103.517880
RightHand -21.373933 -0.000000 -46.841761
RightHandThumb1 -24.326973 -0.000000 -32.862282
LeftUpLeg -16.654746 3.052715 19.746092
LeftLeg 149.918983 -0.000000 -0.000000
LeftFoot 16.086958 2.163946 -29.855840
LeftToeBase 13.124035 -0.000000 -0.000000
RightUpLeg -40.982878 -6.828917 -26.107182
RightLeg 23.199080 -0.000000 -0.000000
RightFoot -26.081731 -10.661838 21.478764
RightToeBase 11.307119 -0.000000 -0.000000
697
root -4.856689 40.777875 -14.631511 -9.050483 -51.338264 51.483546
Spine 12.443686 3.332763 12.444349
Head -4.721958 -29.119969 -16.073712
LeftShoulder -17.160830 17.184330 -8.161896
LeftArm 7.851189 9.940445 -85.020756
LeftForeArm -14.443937 0.000000 8.693256
LeftHand 1.944302 0.000000 -11.094866
LeftHandThumb1 -26.253704 0.000000 33.147579
RightShoulder -4.388204 11.592155 -38.188638
RightArm 13.334620 38.073182 45.544320
RightForeArm -20.749788 -0.000000 103.623664
RightHand -21.423540 -0.000000 -46.559002
RightHandThumb1 -24.326973 -0.000000 -32.862282
LeftUpLeg -16.762611 2.533101 19.832359
LeftLeg 149.989700 -0.000000 -0.000000
LeftFoot 15.887290 2.029747 -29.643502
LeftToeBase 13.039094 -0.000000 -0.000000
RightUpLeg -41.259594 -6.345470 -26.016557
RightLeg 23.174531 -0.000000 -0.000000
RightFoot -25.676537 -11.460495 20.778278
RightToeBase 11.700477 -0.000000 -0.000000
698
root -4.819991 40.755326 -14.656449 -8.920365 -51.659688 51.370172
Spine 12.593602 3.084288 12.309092
Head -5.015835 -28.739519 -15.818167
LeftShoulder -17.132767 16.957155 -8.023169
LeftArm 7.805766 10.120301 -84.904480
LeftForeArm -14.238352 0.000000 8.755611
LeftHand 1.956236 -0.000000 -11.092302
LeftHandThumb1 -26.253704 0.000000 33.147579
RightShoulder -4.268541 11.797812 -38.206827
RightArm 13.606015 38.354976 45.696134
RightForeArm -20.390225 -0.000000 103.681253
RightHand -21.330011 -0.000000 -46.456688
RightHandThumb1 -24.326973 -0.000000 -32.862282
LeftUpLeg -16.924843 2.047573 19.868674
LeftLeg 149.980048 -0.000000 -0.000000
LeftFoot 15.777621 2.147811 -29.238784
LeftToeBase 12.816954 -0.000000 -0.000000
RightUpLeg -41.527000 -5.911012 -25.935878
RightLeg 23.142337 -0.000000 -0.000000
RightFoot -25.092241 -12.271248 19.760226
RightToeBase 11.947359 -0.000000 -0.000000
699
root -4.786186 40.730240 -14.680597 -8.737378 -51.910844 51.158383
Spine 12.758866 2.755523 12.244218
Head -5.296566 -28.425753 -15.670490
LeftShoulder -17.159037 17.037657 -7.976911
LeftArm 8.181420 10.450711 -84.719487
LeftForeArm -14.135351 0.000000 8.695247
LeftHand 1.815445 -0.000000 -11.182982
LeftHandThumb1 -26.253704 0.000000 33.147579
RightShoulder -4.219217 11.711163 -38.214560
RightArm 14.295598 38.847371 46.221065
RightForeArm -20.170153 -0.000000 103.676004
RightHand -21.379566 -0.000000 -46.174316
RightHandThumb1 -24.326973 -0.000000 -32.862282
LeftUpLeg -17.069755 1.376358 19.994838
LeftLeg 150.013348 -0.000000 -0.000000
LeftFoot 15.663889 2.118927 -29.024088
LeftToeBase 12.815107 -0.000000 -0.000000
RightUpLeg -41.727065 -5.539148 -25.799748
RightLeg 23.088610 -0.000000 -0.000000
RightFoot -24.289183 -13.223983 18.266484
RightToeBase 11.744081 -0.000000 -0.000000
700
root -4.756814 40.702027 -14.700344 -8.525378 -52.127459 50.929610
Spine 12.858085 2.475257 12.198943
Head -5.482737 -28.124942 -15.519749
LeftShoulder -17.099955 17.031347 -7.867935
LeftArm 8.396528 10.823423 -84.545373
LeftForeArm -14.089596 -0.000000 8.627244
LeftHand 1.883183 -0.000000 -11.280126
LeftHandThumb1 -26.253704 0.000000 33.147579
RightShoulder -4.116971 11.775718 -38.253434
RightArm 14.489792 39.199082 46.302329
RightForeArm -19.890591 0.000000 103.590410
RightHand -21.342486 -0.000000 -46.294753
RightHandThumb1 -24.326973 -0.000000 -32.862282
LeftUpLeg -17.220120 0.722478 20.093015
LeftLeg 150.031347 -0.000000 -0.000000
LeftFoot 15.542856 2.170333 -28.558386
LeftToeBase 12.736998 -0.000000 -0.000000
RightUpLeg -41.917165 -5.193868 -25.664662
RightLeg 23.041932 -0.000000 -0.000000
RightFoot -23.383195 -14.245563 16.580537
RightToeBase 11.650192 -0.000000 -0.000000
701
root -4.730667 40.673758 -14.720983 -8.348705 -52.300370 50.684975
Spine 13.027543 2.113676 12.142313
Head -5.746257 -27.834978 -15.283762
LeftShoulder -17.091972 16.995168 -7.770311
LeftArm 8.665085 11.268025 -84.344494
LeftForeArm -14.062296 -0.000000 8.526912
LeftHand 1.763003 0.000000 -11.438645
LeftHandThumb1 -26.253704 0.000000 33.147579
RightShoulder -4.014691 11.961618 -38.293957
RightArm 14.635126 39.503116 46.416098
RightForeArm -19.559752 -0.000000 103.483818
RightHand -21.282076 -0.000000 -46.284081
RightHandThumb1 -24.326973 -0.000000 -32.862282
LeftUpLeg -17.341652 -0.029027 20.199798
LeftLeg 150.104686 -0.000000 -0.000000
LeftFoot 15.361521 2.143560 -28.151687
LeftToeBase 12.714578 -0.000000 -0.000000
RightUpLeg -42.056920 -4.872307 -25.514518
RightLeg 23.032866 -0.000000 -0.000000
RightFoot -22.436672 -15.287516 14.840549
RightToeBase 11.659452 -0.000000 -0.000000
